<svg width="82" height="90" viewBox="0 0 82 90" fill="none" xmlns="http://www.w3.org/2000/svg">
<path d="M10.9869 68.5171C4.47084 61.2848 0.5 51.7088 0.5 41.208C0.5 18.6695 18.7756 0.400879 41.3141 0.400879C63.8526 0.400879 82.1282 18.6695 82.1282 41.208C82.1282 43.5933 81.9196 45.9369 81.5301 48.2109" stroke="#1D1D1B" stroke-width="0.695418" stroke-linecap="round" stroke-linejoin="round"/>
<path d="M80.1047 53.9203H80.0981" stroke="#1D1D1B" stroke-width="0.695418" stroke-linecap="round" stroke-linejoin="round"/>
<path d="M66.579 43.2317C62.4135 42.2372 56.1269 52.8215 53.373 49.2471C50.6122 45.6726 53.373 38.6697 53.373 38.6697C61.5094 35.5404 68.7 36.7087 73.7905 39.2609C75.0423 42.8353 70.7446 44.2192 66.579 43.2317Z" fill="#71A894" stroke="#1D1D1B" stroke-width="0.695418" stroke-miterlimit="10"/>
<path d="M77.6358 74.463C72.7956 73.3295 73.9848 65.6659 73.9848 65.6659C69.7706 71.2849 64.1377 75.7912 57.6216 78.6285C57.6564 75.7356 55.4032 74.7759 53.0249 76.1668C50.6396 77.5506 50.2432 76.1668 46.5436 76.1668C42.844 76.1668 43.0665 81.9805 43.0665 81.9805C42.378 88.8651 37.4475 90.9931 34.2277 88.6426C31.8981 86.9388 32.3432 83.4339 32.816 81.4867C26.5851 81.3546 14.151 79.6369 11.5015 73.2112C10.6391 71.118 10.6183 69.602 10.9938 68.5102C11.8144 66.0902 14.5335 65.7146 14.2623 65.7146C14.0119 60.9927 17.2178 56.9454 19.624 54.6088C19.624 54.6088 17.2526 48.3431 18.6504 47.7033C20.0551 47.0565 21.8841 47.0705 26.6199 51.1526C26.8285 51.1387 32.211 50.3042 34.798 50.9926C34.9093 50.93 36.9468 46.4029 38.4628 46.4029C38.9705 46.4029 39.5129 46.8201 40.0414 47.4599C44.6312 43.0857 49.1375 40.2832 53.3865 38.6559C53.3865 38.6559 50.6257 45.6588 53.3865 49.2332C56.1404 52.8077 62.427 42.2234 66.5925 43.2178C70.7581 44.2053 75.0558 42.8215 73.804 39.247C74.9654 39.8242 76.0154 40.4779 76.9403 41.1664C77.0516 34.8381 75.2922 26.4096 67.3714 19.0521C66.8081 18.4888 66.7594 17.5847 67.274 16.9658C67.8234 16.2982 68.804 16.2147 69.4576 16.7641C79.0892 25.7142 80.8903 36.8965 80.5496 43.7742C80.5496 43.7742 81.8639 46.5002 81.5301 48.2109C81.1893 50.1651 80.7165 52.0705 80.1115 53.9203C84.0267 56.9524 82.4898 75.5896 77.6427 74.463H77.6358Z" stroke="#1D1D1B" stroke-width="0.695418" stroke-linecap="round" stroke-linejoin="round"/>
<path d="M22.1699 52.446C22.1699 52.446 21.0363 53.2388 19.6177 54.6158" stroke="#1D1D1B" stroke-width="0.695418" stroke-linecap="round" stroke-linejoin="round"/>
<path d="M69.5766 16.8969L69.4507 16.771" stroke="#1D1D1B" stroke-width="0.695418" stroke-linecap="round" stroke-linejoin="round"/>
<path d="M40.0347 47.4807C41.0708 48.7394 42.0444 50.8813 42.5451 52.453" stroke="#1D1D1B" stroke-width="0.695418" stroke-linecap="round" stroke-linejoin="round"/>
<path d="M35.0906 65.8954C35.0906 65.8954 32.9904 62.7034 29.1587 65.2069" stroke="#1D1D1B" stroke-width="1.39084" stroke-miterlimit="10" stroke-linecap="round"/>
<path d="M21.7453 64.7688C21.7453 64.7688 20.2432 61.8828 16.7104 63.6422" stroke="#1D1D1B" stroke-width="1.39084" stroke-miterlimit="10" stroke-linecap="round"/>
<path d="M19.484 60.4435C20.2281 60.2864 20.7656 59.8484 20.6847 59.4651C20.6038 59.0818 19.935 58.8984 19.191 59.0554C18.4469 59.2125 17.9093 59.6506 17.9903 60.0339C18.0712 60.4172 18.7399 60.6006 19.484 60.4435Z" fill="#1D1D1B"/>
<path d="M34.7523 61.065C34.8475 60.614 34.2149 60.0986 33.3393 59.9138C32.4637 59.729 31.6767 59.9447 31.5815 60.3957C31.4863 60.8466 32.119 61.362 32.9946 61.5468C33.8701 61.7317 34.6571 61.5159 34.7523 61.065Z" fill="#1D1D1B"/>
<path d="M57.622 78.6285C53.1296 80.5896 48.213 81.7648 43.0599 81.9804C43.0599 81.9804 42.8304 76.1667 46.537 76.1667C50.2436 76.1667 50.633 77.5506 53.0183 76.1667C55.3966 74.7759 57.6498 75.7286 57.615 78.6285H57.622Z" fill="#71A894" stroke="#1D1D1B" stroke-width="0.695418" stroke-miterlimit="10"/>
<path d="M28.1918 81.1737C27.9554 81.6049 27.8232 82.1056 27.8232 82.6341C27.8232 84.3448 29.2071 85.7287 30.9179 85.7287C31.4881 85.7287 32.0236 85.5757 32.4825 85.2975" stroke="#1D1D1B" stroke-width="0.695418" stroke-miterlimit="10"/>
<path d="M30.654 84.1926C31.0267 84.1926 31.3289 83.8904 31.3289 83.5176C31.3289 83.1448 31.0267 82.8427 30.654 82.8427C30.2812 82.8427 29.979 83.1448 29.979 83.5176C29.979 83.8904 30.2812 84.1926 30.654 84.1926Z" fill="#1D1D1B"/>
<path d="M30.654 83.5173C30.654 83.5173 30.9462 85.0203 29.979 85.584" stroke="#1D1D1B" stroke-width="0.695418" stroke-miterlimit="10"/>
</svg>
